<svg width="222mm" height="279.4mm" viewBox="0 0 222 279.4" xmlns="http://www.w3.org/2000/svg">
	<defs>
		<ref id="foldsStart" parm="fold-start" default="184 244"/>
	</defs>
	<g id="svgGroup" stroke-linecap="round" fill-rule="evenodd" font-size="9pt" stroke="#000" stroke-width="0.25mm" fill="none" style="stroke:#000;stroke-width:0.25mm;fill:none">
		<path
			d="
				M 148 10
				L 148 60
				L 55 60
				L 55 132
				L 148 132
				L 148 182
				L 55 182
				L 55 254
				L 148 254
				L 148 177
				M 55 10 55 60
				M 55 127 55 177
				M 198 182 198 239
			"
			id="folds"
			stroke="green"
			style="stroke:green"
			vector-effect="non-scaling-stroke"
		/>


		 <path
			 d="
				 M 148 244
				 L 197 244
				 L 199 244
				 L 200 244
				 L 202.6 244

				 A 14.4 14.4 0 0 0 217 229.6
				 L 217 191.4
				 A 14.4 14.4 0 0 0 202.6 177
				 L 200 177
				 L 199 177
				 L 197 177
				 L 148 177
				 L 179.5 174.244
				 L 179.5 132
				 L 158 132
				 A 5 5 0 0 1 153 127
				 L 148 127

				 L 148 105.5
				 A 5 5, 0, 0 1 148 81.5
				 L 148 60

				 L 153 60
				 A 5 5 0 0 1 158 55
				 L 179.5 55
				 L 179.5 12.756
				 L 148 10

				 L 147 10
				 L 55 10

				 L 39.25 35
				 L 28.5 35
				 A 5 5 0 0 0 23.5 40
				 L 23.5 60
				 L 55 60

				 L 30 76.75
				 L 12.667 76.75
				 A 5 5 0 0 0 7.667 81.75
				 L 7.667 105.25
				 A 5 5 0 0 0 12.667 110.25
				 L 30 110.25
				 L 55 127

				 L 23.5 127
				 L 23.5 147
				 A 5 5 0 0 0 28.5 152
				 L 39.25 152
				 L 55 177

				 L 5 177
				 L 5 188.75
				 A 5 5 0 0 0 10 193.75
				 L 30 193.75
				 L 30 227.25
				 L 10 227.25
				 A 5 5 0 0 0 5 232.25
				 L 5 244
				 L 55 244

				 L 78 267
				 L 125 267
				 L 148 244 Z

				 M 198 239 L 199 239 L 199 244
				 M 198 182 L 199 182 L 199 177
			 "
			 id="cuts"
			 stroke="red"
			 style="stroke:red"
			 vector-effect="non-scaling-stroke"
		 />


	</g>
</svg>